<svg xmlns="http://www.w3.org/2000/svg" width="21" height="21" viewBox="0 0 21 21">
    <g data-name="Group 3210">
        <path data-name="Path 12845" d="M2314.5 1567h2.625a3.5 3.5 0 0 1 3.5 3.5v2.625a3.5 3.5 0 0 1-3.5 3.5h-2.625a3.5 3.5 0 0 1-3.5-3.5v-2.625a3.5 3.5 0 0 1 3.5-3.5zm2.625 7.875a1.752 1.752 0 0 0 1.75-1.75v-2.625a1.752 1.752 0 0 0-1.75-1.75h-2.625a1.752 1.752 0 0 0-1.75 1.75v2.625a1.752 1.752 0 0 0 1.75 1.75z" transform="translate(-2311 -1567)" style="fill:#fff"/>
        <path data-name="Path 12846" d="M2314.5 1576.75h2.625a3.5 3.5 0 0 1 3.5 3.5v2.625a3.5 3.5 0 0 1-3.5 3.5h-2.625a3.5 3.5 0 0 1-3.5-3.5v-2.625a3.5 3.5 0 0 1 3.5-3.5zm2.625 7.875a1.752 1.752 0 0 0 1.75-1.75v-2.625a1.752 1.752 0 0 0-1.75-1.75h-2.625a1.752 1.752 0 0 0-1.75 1.75v2.625a1.752 1.752 0 0 0 1.75 1.75z" transform="translate(-2311 -1565.375)" style="fill:#fff"/>
        <path data-name="Path 12847" d="M2324.25 1567h2.625a3.5 3.5 0 0 1 3.5 3.5v2.625a3.5 3.5 0 0 1-3.5 3.5h-2.625a3.5 3.5 0 0 1-3.5-3.5v-2.625a3.5 3.5 0 0 1 3.5-3.5zm2.625 7.875a1.752 1.752 0 0 0 1.75-1.75v-2.625a1.752 1.752 0 0 0-1.75-1.75h-2.625a1.752 1.752 0 0 0-1.75 1.75v2.625a1.752 1.752 0 0 0 1.75 1.75z" transform="translate(-2309.375 -1567)" style="fill:#fff"/>
        <path data-name="Path 12848" d="M2324.25 1576.75h2.625a3.5 3.5 0 0 1 3.5 3.5v2.625a3.5 3.5 0 0 1-3.5 3.5h-2.625a3.5 3.5 0 0 1-3.5-3.5v-2.625a3.5 3.5 0 0 1 3.5-3.5zm2.625 7.875a1.752 1.752 0 0 0 1.75-1.75v-2.625a1.752 1.752 0 0 0-1.75-1.75h-2.625a1.752 1.752 0 0 0-1.75 1.75v2.625a1.752 1.752 0 0 0 1.75 1.75z" transform="translate(-2309.375 -1565.375)" style="fill:#fff"/>
    </g>
</svg>
