<svg xmlns="http://www.w3.org/2000/svg" width="17.529" height="21.036" viewBox="0 0 17.529 21.036">
    <g data-name="Group 21">
        <g data-name="Group 20">
            <path data-name="Path 359" d="m60.142 17.743-1.5-2.509a7.451 7.451 0 0 1-1.067-3.834V9.2a6.143 6.143 0 0 0-4.382-5.877v-1.57a1.753 1.753 0 1 0-3.506 0v1.573A6.143 6.143 0 0 0 45.3 9.2v2.2a7.456 7.456 0 0 1-1.061 3.833l-1.5 2.509a.439.439 0 0 0 .375.664h16.652a.438.438 0 0 0 .376-.664z" transform="translate(-42.675)" style="fill:#fff"/>
        </g>
    </g>
    <g data-name="Group 23">
        <g data-name="Group 22">
            <path data-name="Path 360" d="M188.815 469.333a3.049 3.049 0 0 0 5.52 0z" transform="translate(-182.811 -450.05)" style="fill:#fff"/>
        </g>
    </g>
</svg>
